<svg xmlns="http://www.w3.org/2000/svg" xmlns:xlink="http://www.w3.org/1999/xlink" width="500" zoomAndPan="magnify" viewBox="0 0 375 374.999991" height="500" preserveAspectRatio="xMidYMid meet" version="1.0"><defs><clipPath id="e10bf911bf"><path d="M 244 53 L 276 53 L 276 89 L 244 89 Z M 244 53 " clip-rule="nonzero"/></clipPath><clipPath id="d82e8f026d"><path d="M 257.574219 48.605469 L 280.433594 61.742188 L 262.042969 93.75 L 239.183594 80.613281 Z M 257.574219 48.605469 " clip-rule="nonzero"/></clipPath><clipPath id="d045f70b4a"><path d="M 268.96875 55.15625 C 275.261719 58.773438 277.433594 66.804688 273.816406 73.097656 L 268.566406 82.234375 C 264.953125 88.527344 256.917969 90.695312 250.625 87.078125 C 244.332031 83.460938 242.160156 75.429688 245.777344 69.136719 L 251.027344 60 C 254.640625 53.707031 262.675781 51.539062 268.96875 55.15625 " clip-rule="nonzero"/></clipPath><clipPath id="8ad4776336"><path d="M 231 32 L 297 32 L 297 85 L 231 85 Z M 231 32 " clip-rule="nonzero"/></clipPath><clipPath id="97677ad0d2"><path d="M 248.265625 19.769531 L 309.96875 55.226562 L 292.921875 84.894531 L 231.214844 49.433594 Z M 248.265625 19.769531 " clip-rule="nonzero"/></clipPath><clipPath id="2ed2bff226"><path d="M 267.820312 33.375 C 271.589844 34.113281 275.605469 35.480469 279.132812 37.507812 C 282.664062 39.535156 285.710938 42.09375 288.222656 44.96875 C 288.273438 45.039062 288.339844 45.078125 288.386719 45.148438 C 297.667969 56.207031 299.796875 72.546875 292.921875 84.894531 L 231.214844 49.433594 C 238.460938 37.210938 253.515625 30.746094 267.820312 33.375 " clip-rule="nonzero"/></clipPath><clipPath id="dc268fd670"><path d="M 103 53 L 135 53 L 135 89 L 103 89 Z M 103 53 " clip-rule="nonzero"/></clipPath><clipPath id="395c259c62"><path d="M 98.671875 61.671875 L 121.546875 48.554688 L 139.90625 80.582031 L 117.035156 93.695312 Z M 98.671875 61.671875 " clip-rule="nonzero"/></clipPath><clipPath id="3ea1cf6b10"><path d="M 110.074219 55.132812 C 116.371094 51.523438 124.40625 53.703125 128.015625 60 L 133.253906 69.136719 C 136.863281 75.433594 134.6875 83.464844 128.390625 87.078125 C 122.089844 90.6875 114.058594 88.507812 110.449219 82.210938 L 105.210938 73.074219 C 101.601562 66.777344 103.777344 58.746094 110.074219 55.132812 " clip-rule="nonzero"/></clipPath><clipPath id="c3daa3169a"><path d="M 82 32 L 148 32 L 148 85 L 82 85 Z M 82 32 " clip-rule="nonzero"/></clipPath><clipPath id="f634e362c0"><path d="M 69.074219 55.164062 L 130.816406 19.769531 L 147.835938 49.449219 L 86.09375 84.847656 Z M 69.074219 55.164062 " clip-rule="nonzero"/></clipPath><clipPath id="e9ddce21b0"><path d="M 90.6875 45.140625 C 93.226562 42.257812 96.429688 39.480469 99.964844 37.457031 C 103.496094 35.433594 107.242188 34.089844 110.988281 33.371094 C 111.074219 33.363281 111.140625 33.328125 111.226562 33.324219 C 125.457031 30.882812 140.640625 37.289062 147.835938 49.449219 L 86.09375 84.847656 C 79.195312 72.425781 81.203125 56.167969 90.6875 45.140625 " clip-rule="nonzero"/></clipPath><clipPath id="31b0e9e579"><path d="M 44.914062 54.742188 L 334.132812 54.742188 L 334.132812 343.960938 L 44.914062 343.960938 Z M 44.914062 54.742188 " clip-rule="nonzero"/></clipPath><clipPath id="bb45f5b5c8"><path d="M 189.523438 54.742188 C 109.65625 54.742188 44.914062 119.488281 44.914062 199.351562 C 44.914062 279.21875 109.65625 343.960938 189.523438 343.960938 C 269.386719 343.960938 334.132812 279.21875 334.132812 199.351562 C 334.132812 119.488281 269.386719 54.742188 189.523438 54.742188 " clip-rule="nonzero"/></clipPath><clipPath id="223ba5996a"><path d="M 44.914062 54.742188 L 334.414062 54.742188 L 334.414062 344.242188 L 44.914062 344.242188 Z M 44.914062 54.742188 " clip-rule="nonzero"/></clipPath><clipPath id="2251e3b86c"><path d="M 189.664062 54.742188 C 109.722656 54.742188 44.914062 119.550781 44.914062 199.492188 C 44.914062 279.4375 109.722656 344.242188 189.664062 344.242188 C 269.609375 344.242188 334.414062 279.4375 334.414062 199.492188 C 334.414062 119.550781 269.609375 54.742188 189.664062 54.742188 " clip-rule="nonzero"/></clipPath><clipPath id="d2a7dbc387"><path d="M 184.359375 77.128906 L 194.351562 77.128906 L 194.351562 97.117188 L 184.359375 97.117188 Z M 184.359375 77.128906 " clip-rule="nonzero"/></clipPath><clipPath id="36b0025f42"><path d="M 184.359375 82.128906 C 184.359375 79.367188 186.597656 77.128906 189.355469 77.128906 C 192.117188 77.128906 194.351562 79.367188 194.351562 82.128906 L 194.351562 92.121094 C 194.351562 94.878906 192.117188 97.117188 189.355469 97.117188 C 186.597656 97.117188 184.359375 94.878906 184.359375 92.121094 L 184.359375 82.128906 " clip-rule="nonzero"/></clipPath><clipPath id="1cd3e8b443"><path d="M 184.359375 300.429688 L 194.351562 300.429688 L 194.351562 320.417969 L 184.359375 320.417969 Z M 184.359375 300.429688 " clip-rule="nonzero"/></clipPath><clipPath id="f9cd44b73b"><path d="M 184.359375 305.429688 C 184.359375 302.667969 186.597656 300.429688 189.355469 300.429688 C 192.117188 300.429688 194.351562 302.667969 194.351562 305.429688 L 194.351562 315.421875 C 194.351562 318.179688 192.117188 320.417969 189.355469 320.417969 C 186.597656 320.417969 184.359375 318.179688 184.359375 315.421875 L 184.359375 305.429688 " clip-rule="nonzero"/></clipPath><clipPath id="67dac941d5"><path d="M 289.984375 199.351562 L 309.972656 199.351562 L 309.972656 209.34375 L 289.984375 209.34375 Z M 289.984375 199.351562 " clip-rule="nonzero"/></clipPath><clipPath id="4fb4d36bb3"><path d="M 294.980469 209.34375 C 292.222656 209.34375 289.984375 207.109375 289.984375 204.347656 C 289.984375 201.589844 292.222656 199.351562 294.980469 199.351562 L 304.976562 199.351562 C 307.734375 199.351562 309.972656 201.589844 309.972656 204.347656 C 309.972656 207.109375 307.734375 209.34375 304.976562 209.34375 L 294.980469 209.34375 " clip-rule="nonzero"/></clipPath><clipPath id="e5733afc3e"><path d="M 69.074219 199.351562 L 89.0625 199.351562 L 89.0625 209.34375 L 69.074219 209.34375 Z M 69.074219 199.351562 " clip-rule="nonzero"/></clipPath><clipPath id="6629bf6573"><path d="M 74.070312 209.34375 C 71.308594 209.34375 69.074219 207.109375 69.074219 204.347656 C 69.074219 201.589844 71.308594 199.351562 74.070312 199.351562 L 84.0625 199.351562 C 86.824219 199.351562 89.0625 201.589844 89.0625 204.347656 C 89.0625 207.109375 86.824219 209.34375 84.0625 209.34375 L 74.070312 209.34375 " clip-rule="nonzero"/></clipPath><clipPath id="f4ac34d876"><path d="M 140 164 L 205 164 L 205 230 L 140 230 Z M 140 164 " clip-rule="nonzero"/></clipPath><clipPath id="2eac9ad36b"><path d="M 159.035156 157.238281 L 211.910156 212.566406 L 185.085938 238.199219 L 132.210938 182.875 Z M 159.035156 157.238281 " clip-rule="nonzero"/></clipPath><clipPath id="09e549b6fe"><path d="M 198.898438 198.953125 C 205.980469 206.359375 205.832031 217.988281 198.574219 224.925781 C 191.3125 231.863281 179.691406 231.484375 172.609375 224.074219 L 145.566406 195.777344 C 138.484375 188.367188 138.632812 176.738281 145.890625 169.800781 C 153.152344 162.863281 164.773438 163.246094 171.855469 170.652344 L 198.898438 198.953125 " clip-rule="nonzero"/></clipPath><clipPath id="71d466b4f0"><path d="M 171 136 L 265 136 L 265 231 L 171 231 Z M 171 136 " clip-rule="nonzero"/></clipPath><clipPath id="ca4aaaa2c3"><path d="M 272.078125 152.675781 L 186.808594 237.945312 L 163.03125 214.167969 L 248.300781 128.898438 Z M 272.078125 152.675781 " clip-rule="nonzero"/></clipPath><clipPath id="68472bb9d5"><path d="M 200.382812 224.367188 C 193.140625 231.613281 182.101562 232.324219 175.730469 225.953125 C 169.359375 219.582031 170.070312 208.546875 177.316406 201.300781 L 235.890625 142.722656 C 243.136719 135.480469 254.175781 134.769531 260.542969 141.140625 C 266.914062 147.511719 266.207031 158.546875 258.960938 165.792969 L 200.382812 224.367188 " clip-rule="nonzero"/></clipPath></defs><g clip-path="url(#e10bf911bf)"><g clip-path="url(#d82e8f026d)"><g clip-path="url(#d045f70b4a)"><path fill="#013a4e" d="M 257.574219 48.605469 L 280.433594 61.742188 L 262.042969 93.75 L 239.183594 80.613281 Z M 257.574219 48.605469 " fill-opacity="1" fill-rule="nonzero"/></g></g></g><g clip-path="url(#8ad4776336)"><g clip-path="url(#97677ad0d2)"><g clip-path="url(#2ed2bff226)"><path fill="#10c6b6" d="M 248.265625 19.769531 L 309.96875 55.226562 L 292.921875 84.894531 L 231.214844 49.433594 Z M 248.265625 19.769531 " fill-opacity="1" fill-rule="nonzero"/></g></g></g><g clip-path="url(#dc268fd670)"><g clip-path="url(#395c259c62)"><g clip-path="url(#3ea1cf6b10)"><path fill="#013a4e" d="M 98.671875 61.671875 L 121.546875 48.554688 L 139.90625 80.582031 L 117.035156 93.695312 Z M 98.671875 61.671875 " fill-opacity="1" fill-rule="nonzero"/></g></g></g><g clip-path="url(#c3daa3169a)"><g clip-path="url(#f634e362c0)"><g clip-path="url(#e9ddce21b0)"><path fill="#10c6b6" d="M 69.074219 55.164062 L 130.816406 19.769531 L 147.835938 49.449219 L 86.09375 84.847656 Z M 69.074219 55.164062 " fill-opacity="1" fill-rule="nonzero"/></g></g></g><g clip-path="url(#31b0e9e579)"><g clip-path="url(#bb45f5b5c8)"><path fill="#013a4e" d="M 44.914062 54.742188 L 334.132812 54.742188 L 334.132812 343.960938 L 44.914062 343.960938 Z M 44.914062 54.742188 " fill-opacity="1" fill-rule="nonzero"/></g></g><g clip-path="url(#223ba5996a)"><g clip-path="url(#2251e3b86c)"><path stroke-linecap="butt" transform="matrix(0.75076, 0, 0, 0.75076, 44.914278, 54.743596)" fill="none" stroke-linejoin="miter" d="M 192.804409 -0.00187557 C 86.323728 -0.00187557 -0.00028751 86.32214 -0.00028751 192.802821 C -0.00028751 299.288706 86.323728 385.607518 192.804409 385.607518 C 299.290294 385.607518 385.609106 299.288706 385.609106 192.802821 C 385.609106 86.32214 299.290294 -0.00187557 192.804409 -0.00187557 " stroke="#10c6b6" stroke-width="50" stroke-opacity="1" stroke-miterlimit="4"/></g></g><g clip-path="url(#d2a7dbc387)"><g clip-path="url(#36b0025f42)"><path fill="#10c6b6" d="M 184.359375 97.117188 L 184.359375 77.128906 L 194.351562 77.128906 L 194.351562 97.117188 Z M 184.359375 97.117188 " fill-opacity="1" fill-rule="nonzero"/></g></g><g clip-path="url(#1cd3e8b443)"><g clip-path="url(#f9cd44b73b)"><path fill="#10c6b6" d="M 184.359375 320.417969 L 184.359375 300.429688 L 194.351562 300.429688 L 194.351562 320.417969 Z M 184.359375 320.417969 " fill-opacity="1" fill-rule="nonzero"/></g></g><g clip-path="url(#67dac941d5)"><g clip-path="url(#4fb4d36bb3)"><path fill="#10c6b6" d="M 309.972656 209.34375 L 289.984375 209.34375 L 289.984375 199.351562 L 309.972656 199.351562 Z M 309.972656 209.34375 " fill-opacity="1" fill-rule="nonzero"/></g></g><g clip-path="url(#e5733afc3e)"><g clip-path="url(#6629bf6573)"><path fill="#10c6b6" d="M 89.0625 209.34375 L 69.074219 209.34375 L 69.074219 199.351562 L 89.0625 199.351562 Z M 89.0625 209.34375 " fill-opacity="1" fill-rule="nonzero"/></g></g><g clip-path="url(#f4ac34d876)"><g clip-path="url(#2eac9ad36b)"><g clip-path="url(#09e549b6fe)"><path fill="#10c6b6" d="M 159.035156 157.238281 L 211.910156 212.566406 L 185.921875 237.398438 L 133.050781 182.074219 Z M 159.035156 157.238281 " fill-opacity="1" fill-rule="nonzero"/></g></g></g><g clip-path="url(#71d466b4f0)"><g clip-path="url(#ca4aaaa2c3)"><g clip-path="url(#68472bb9d5)"><path fill="#10c6b6" d="M 272.078125 152.675781 L 187.628906 237.125 L 164.671875 214.167969 L 249.121094 129.71875 Z M 272.078125 152.675781 " fill-opacity="1" fill-rule="nonzero"/></g></g></g></svg>